<svg id="logo" xmlns="http://www.w3.org/2000/svg" width="1641.891" height="376.245" viewBox="0 0 1641.891 376.245">
  <path id="mtrade._copia_19" data-name="mtrade. copia 19" d="M492.963,381.481V297.649q0-25.894,12.1-39.529a38.315,38.315,0,0,1,29.821-13.632q20.446,0,27.262,13.115t6.815,39.359v84.513h30.669V293.222q0-48.733,41.234-48.733a38.99,38.99,0,0,1,17.884,3.748,23.456,23.456,0,0,1,10.73,10.73,55.564,55.564,0,0,1,4.77,14.654,103.752,103.752,0,0,1,1.363,17.884v89.966h30.669V287.426q0-71.562-61.34-71.562a60,60,0,0,0-29.477,7.838,52.827,52.827,0,0,0-21.639,22.151q-15.679-29.985-50.435-29.988a58.788,58.788,0,0,0-34.077,10.052q-14.656,10.055-17.72,19.253h-.672V219.954H462.293V381.481ZM795.227,219.954V174.63H764.559v45.323H729.117v26.579h35.441V330.7q0,10.222.339,16.016a64.629,64.629,0,0,0,2.9,14.307,28.332,28.332,0,0,0,7.327,12.949,43.51,43.51,0,0,0,14.307,8.009,66.232,66.232,0,0,0,23.173,3.577q18.057,0,27.6-5.453V352.167q-7.842,4.769-21.81,4.769a26.78,26.78,0,0,1-13.29-2.9,14.972,14.972,0,0,1-6.985-9.371,67.685,67.685,0,0,1-2.384-11.074,136.636,136.636,0,0,1-.512-13.8V246.533h43.965V219.954H795.223ZM909.385,381.481V300.375q0-51.794,46.349-51.8a59.6,59.6,0,0,1,14.994,2.384l1.364-33.055a42.924,42.924,0,0,0-13.632-2.045,55.391,55.391,0,0,0-28.966,8.177,47.272,47.272,0,0,0-19.424,20.789h-.682V219.954H878.716V381.481h30.669ZM1036.152,249.6a61.227,61.227,0,0,1,13.115-5.793,61.9,61.9,0,0,1,20.617-3.408q18.4,0,28.454,10.224a32.982,32.982,0,0,1,10.054,23.854V281.3H1085.9q-40.212,0-64.576,13.29t-24.365,42.6q0,22.492,16.186,35.44t39.7,12.951q37.825,0,56.569-28.626h.681q0,12.268,1.022,24.536h27.262a253.106,253.106,0,0,1-1.363-29.307V269.706a50.005,50.005,0,0,0-16.867-38.332q-16.87-15.5-50.606-15.5-38.848,0-64.067,23.854l18.4,19.067q8.857-6.808,12.268-9.2Zm72.244,64.407a51.1,51.1,0,0,1-11.246,33.055q-11.245,13.976-34.758,13.972-34.761,0-34.76-26.24,0-31,64.406-31.01H1108.4Zm204.458-190.153V243.125h-.67a55.99,55.99,0,0,0-23.518-19.934,74.969,74.969,0,0,0-32.715-7.326q-36.8,0-59.463,24.024t-22.662,60.828q0,36.469,22.662,60.656t59.463,24.2a73.42,73.42,0,0,0,32.03-7.328,61.02,61.02,0,0,0,24.2-19.934h.67v23.173h30.671V123.854ZM1206.538,300.716q0-24.872,14.484-40.553t38.677-15.675q24.2,0,38.684,15.675t14.471,40.553q0,24.878-14.471,40.553T1259.7,356.944q-24.2,0-38.677-15.675T1206.538,300.716Zm336,.341q0-35.1-19.6-60.147t-59.121-25.046q-36.126,0-59.807,24.2t-23.68,60.656q0,36.811,22.831,60.828t60.313,24.025q46.005,0,71.565-33.057l-23.175-17.72q-19.761,24.2-44.307,24.2a58.508,58.508,0,0,1-38.331-13.291q-16.185-13.291-16.185-33.736h129.493v-10.9Zm-115.186-45.839q14.329-14.823,35.782-14.824,22.489,0,34.248,12.949t12.444,34.078h-96.781Q1413.048,270.047,1427.355,255.219Zm198.673,105.812a22.694,22.694,0,1,0-6.646,15.847,21.6,21.6,0,0,0,6.647-15.847Z" transform="translate(15.86 -74.204)" fill="#1a202d" fillRule="evenodd"/>
  <path id="Rect치ngulo_1_copia_20" data-name="Rect치ngulo 1 copia 20" d="M307.227,92.582,469.678,420.388,306,462.8,141.872,420.388Z" transform="translate(-141.246 -89.537)" fillRule="evenodd"/>
  <path id="Rect치ngulo_1_copia_20-2" data-name="Rect치ngulo 1 copia 20" d="M358.536,121.475,517.327,405.416l-159.463,46.2-148.522-34.37Z" transform="translate(-108.165 -75.371)" fillRule="evenodd"/>
  <path id="Forma_6_copia_18" data-name="Forma 6 copia 18" d="M305.914,90.539,141.452,419.464,306.2,463.8l-.289-373.265" transform="translate(-141.452 -90.539)" fill="#ff1f00" fillRule="evenodd"/>
  <path id="Forma_6_copia_18-2" data-name="Forma 6 copia 18" d="M309,91,470.313,419.238,309,463.578V91" transform="translate(-59.301 -90.313)" fill="#21a2d9" fillRule="evenodd"/>
  <path id="Forma_9_copia_11" data-name="Forma 9 copia 11" d="M336.948,362.585,252,344.7l2.11-157.159L336.948,145Z" transform="translate(-87.249 -63.836)" fill="#349742" fillRule="evenodd"/>
  <path id="Forma_9_copia_11-2" data-name="Forma 9 copia 11" d="M336.948,388.56,252,369.186V279.768L336.948,244Z" transform="translate(-87.249 -15.295)" fill="#e1a82f" fillRule="evenodd"/>
  <path id="Forma_11_copia_8" data-name="Forma 11 copia 8" d="M252,287.721l84.948-41.729V91L252,243.012Z" transform="translate(-87.249 -90.313)" fill="#1d7280" fillRule="evenodd"/>
  <path id="Forma_12_copia_10" data-name="Forma 12 copia 10" d="M252,92V246.992l43.219-80.477Z" transform="translate(-87.249 -89.823)" fill="#d16d3c" fillRule="evenodd"/>
</svg>
